<?xml version="1.0" standalone="no"?>
<!DOCTYPE svg PUBLIC "-//W3C//DTD SVG 20010904//EN"
 "http://www.w3.org/TR/2001/REC-SVG-20010904/DTD/svg10.dtd">
<svg version="1.0" xmlns="http://www.w3.org/2000/svg"
 width="386.000000pt" height="274.000000pt" viewBox="0 0 386.000000 274.000000"
 preserveAspectRatio="xMidYMid meet">

<g transform="translate(0.000000,274.000000) scale(0.100000,-0.100000)"
fill="#000000" stroke="none">
<path d="M1794 2618 c-49 -33 -92 -66 -97 -72 -4 -6 -7 -51 -6 -99 1 -48 -1
-91 -5 -94 -4 -4 -30 -23 -59 -43 l-52 -36 -2 -203 c0 -112 -5 -207 -10 -212
-5 -5 -23 1 -43 16 -19 14 -38 25 -43 25 -5 0 -39 -21 -76 -48 -36 -26 -85
-60 -108 -76 l-43 -29 0 -103 0 -104 -25 0 c-14 0 -25 3 -25 8 0 4 -20 18 -44
32 -43 23 -46 23 -64 7 -30 -27 -49 -21 -56 17 -6 30 -19 42 -115 104 l-109
70 -59 -41 c-32 -23 -60 -44 -63 -47 -3 -3 -22 -16 -42 -30 l-38 -25 0 -477
c0 -413 2 -478 15 -478 34 0 36 35 35 483 -1 243 -1 447 -1 452 1 6 15 19 31
29 17 9 27 22 24 28 -5 7 -2 8 5 3 7 -4 22 1 34 13 54 50 52 68 57 -463 l5
-490 60 4 c33 2 66 8 73 13 9 8 12 91 12 353 l0 343 62 46 c35 26 69 45 78 44
13 -3 16 -55 20 -393 l5 -390 83 -3 82 -3 2 253 c1 139 0 357 -1 484 l-3 231
87 62 c47 34 90 59 96 56 5 -4 9 -221 9 -551 l0 -544 23 -9 c12 -5 49 -10 82
-12 l60 -4 2 764 c2 666 4 767 17 780 9 8 18 12 21 9 3 -3 6 -164 5 -357 0
-362 0 -367 37 -343 10 6 13 119 15 486 l3 479 64 44 c37 25 68 40 73 35 5 -5
8 -438 8 -976 l0 -966 27 -11 c57 -22 54 -76 53 839 0 753 1 843 15 848 9 4
24 -1 34 -10 17 -15 18 -60 19 -857 0 -462 2 -842 4 -844 2 -1 18 -6 36 -10
l32 -7 0 826 c0 801 1 826 19 826 10 0 24 -6 30 -13 8 -10 12 -248 13 -833 l3
-819 52 -11 c28 -6 72 -15 97 -18 l46 -7 2 612 c2 397 7 613 13 615 6 2 18 -3
27 -10 16 -12 18 -55 18 -612 0 -329 4 -605 9 -612 4 -7 21 -14 37 -15 l29 -2
3 617 2 617 -37 27 c-62 45 -62 46 -54 125 2 11 150 109 167 109 14 0 15 -67
12 -749 -2 -412 0 -753 4 -757 11 -10 90 -19 173 -19 l70 0 3 496 2 496 24 13
c58 30 56 47 56 -505 l0 -505 99 0 c67 0 102 4 109 13 12 14 15 906 3 925 -10
16 -210 142 -225 142 -7 0 -21 -9 -30 -19 -37 -41 -41 -20 -38 187 l3 198 -26
12 c-15 7 -31 10 -36 6 -5 -3 -8 -1 -7 5 3 8 -173 131 -187 131 -3 0 -55 -35
-115 -77 -96 -67 -110 -81 -110 -105 0 -44 -24 -44 -85 -2 l-55 37 0 158 0
158 -45 27 -45 26 0 93 c0 98 -5 111 -53 137 -12 6 -59 35 -104 64 -46 30 -87
54 -91 54 -5 0 -49 -28 -98 -62z"/>
<path d="M935 659 c-27 -5 -90 -16 -140 -25 -125 -23 -367 -105 -353 -119 2
-3 31 2 64 11 215 56 240 59 499 59 144 0 272 -5 320 -13 44 -7 112 -18 150
-24 39 -6 113 -19 165 -30 52 -11 118 -23 145 -29 28 -5 70 -13 95 -19 25 -6
81 -17 125 -26 44 -9 100 -20 125 -25 96 -19 159 -30 265 -44 61 -8 120 -17
133 -20 13 -3 119 -6 235 -6 223 0 334 12 472 52 99 29 254 89 262 101 4 7 1
8 -6 3 -27 -16 -226 -58 -358 -76 -143 -18 -447 -4 -648 30 -33 6 -100 17
-150 25 -49 9 -133 25 -185 36 -52 12 -142 30 -200 41 -58 11 -121 24 -140 29
-19 5 -64 14 -100 20 -36 6 -85 16 -110 21 -141 29 -565 47 -665 28z"/>
<path d="M720 510 c-137 -15 -229 -32 -324 -63 -81 -25 -95 -33 -75 -38 18 -5
20 -7 5 -8 -11 -1 -17 -3 -15 -6 3 -2 30 0 60 5 29 6 126 17 214 25 248 22
552 -4 870 -74 22 -5 63 -14 90 -20 28 -6 97 -22 155 -35 58 -14 166 -39 240
-56 74 -17 171 -39 215 -50 77 -19 257 -51 395 -71 112 -17 515 -23 599 -9
160 26 239 44 336 77 55 19 108 37 118 40 9 3 17 10 17 15 0 5 4 7 9 3 5 -3
13 0 17 6 5 9 -1 10 -22 5 -325 -83 -619 -93 -989 -34 -140 22 -378 71 -555
113 -63 15 -131 31 -150 36 -65 15 -265 60 -315 70 -27 5 -70 14 -95 19 -224
48 -602 71 -800 50z"/>
</g>
</svg>
